<svg width="20" height="20" viewBox="0 0 20 20" fill="none" xmlns="http://www.w3.org/2000/svg">
<path d="M5.8335 10C7.21421 10 8.3335 8.88071 8.3335 7.5C8.3335 6.11929 7.21421 5 5.8335 5C4.45278 5 3.3335 6.11929 3.3335 7.5C3.3335 8.88071 4.45278 10 5.8335 10Z" stroke="white" stroke-width="1.5"/>
<path d="M6.66683 11.6667C6.66683 11.6667 6.25016 11.6667 5.00016 11.6667C3.75016 11.6667 0.833496 12.5 0.833496 14.5833C0.833496 16.1942 0.833496 17.5 4.16684 17.5C6.66683 17.5 7.50016 17.5 7.50016 17.5" stroke="white" stroke-width="1.5" stroke-linecap="round"/>
<path d="M13.7502 9.16668C15.361 9.16668 16.6668 7.86084 16.6668 6.25001C16.6668 4.63918 15.361 3.33334 13.7502 3.33334C12.1393 3.33334 10.8335 4.63918 10.8335 6.25001C10.8335 7.86084 12.1393 9.16668 13.7502 9.16668Z" stroke="white" stroke-width="1.5"/>
<path d="M19.1651 14.537C19.1668 14.4154 19.1668 14.2919 19.1668 14.1667C19.1668 12.3257 16.7417 10.8333 13.7502 10.8333C10.7586 10.8333 8.3335 12.3257 8.3335 14.1667C8.3335 16.0076 8.3335 17.5 13.7502 17.5C15.2607 17.5 16.35 17.3839 17.1356 17.1766" stroke="white" stroke-width="1.5" stroke-linecap="round"/>
</svg>
