<svg width="20" height="20" viewBox="0 0 20 20" fill="none" xmlns="http://www.w3.org/2000/svg">
<path d="M9.99984 8.33332C11.8408 8.33332 13.3332 6.84094 13.3332 4.99999C13.3332 3.15904 11.8408 1.66666 9.99984 1.66666C8.15889 1.66666 6.6665 3.15904 6.6665 4.99999C6.6665 6.84094 8.15889 8.33332 9.99984 8.33332Z" stroke="white" stroke-width="1.5"/>
<path d="M16.6647 15C16.6668 14.8632 16.6668 14.7242 16.6668 14.5833C16.6668 12.5123 13.6821 10.8333 10.0002 10.8333C6.31826 10.8333 3.3335 12.5123 3.3335 14.5833C3.3335 16.6544 3.3335 18.3333 10.0002 18.3333C11.8593 18.3333 13.2 18.2028 14.1668 17.9695" stroke="white" stroke-width="1.5" stroke-linecap="round"/>
</svg>
